<?xml version="1.0" standalone="no"?>
<!DOCTYPE svg PUBLIC "-//W3C//DTD SVG 1.1//EN" "http://www.w3.org/Graphics/SVG/1.1/DTD/svg11.dtd" >
<svg xmlns="http://www.w3.org/2000/svg">
<metadata>
Created by FontPrep 20130207 at Tue Aug  9 10:36:59 2016
 By Damien Grossfeld
Generated in 2013 by FontLab Studio. Copyright info pending.
</metadata>
<defs>
<font id="dd452d63ae05ddb466f19713a7d09fd5" horiz-adv-x='1024' >
  <font-face 
    font-family="CircularStd-Book"
    font-weight="500"
    font-stretch="normal"
    units-per-em="2048"
    panose-1="2 0 6 3 0 0 0 0 0 0"
    ascent="1657"
    descent="-391"
    x-height="985"
    cap-height="1452"
    bbox="-92 -475.015 2025 1812"
    underline-thickness="163"
    underline-position="-236"
    unicode-range="U+000D-00FF"
  />
<missing-glyph horiz-adv-x="1024" 
 />
    <glyph glyph-name=".notdef" horiz-adv-x="1024" 
 />
    <glyph glyph-name="uni0000" horiz-adv-x="0" 
 />
    <glyph glyph-name="uni0000" horiz-adv-x="0" 
 />
    <glyph glyph-name="uni000D" unicode="&#xd;" horiz-adv-x="512" 
 />
    <glyph glyph-name="space" unicode=" " horiz-adv-x="512" 
 />
    <glyph glyph-name="exclam" unicode="!" horiz-adv-x="636" 
d="M438 1452l-51 -1036h-137l-53 1036h241zM184 124q0 56 39 95t94 39t95 -40t40 -93t-38 -96q-40 -39 -96 -39t-95 39t-39 95z" />
    <glyph glyph-name="quotedbl" unicode="&#x22;" horiz-adv-x="765" 
d="M82 1227q0 55 35 90t89 35t89 -35t35 -90q0 -8 -4 -37l-86 -385h-70l-84 383q-4 29 -4 39zM436 1227q0 55 35 90t89 35t89 -35t35 -90q0 -8 -4 -37l-86 -385h-70l-84 383q-4 29 -4 39z" />
    <glyph glyph-name="numbersign" unicode="#" horiz-adv-x="1511" 
d="M203 829v156h295l73 342h172l-73 -342h291l73 342h172l-73 -342h276v-156h-309l-70 -327h279v-156h-314l-73 -346h-172l73 346h-291l-73 -346h-172l73 346h-258v156h293l70 327h-262zM637 829l-70 -327h291l70 327h-291z" />
    <glyph glyph-name="dollar" unicode="$" horiz-adv-x="1218" 
d="M709 -240h-160v213q-201 23 -315 141t-132 265l195 61q9 -106 73 -185t179 -101v428l-51 10q-162 34 -251 130t-89 242t108 259q109 109 283 131v215h160v-217q172 -23 262 -117t121 -217l-185 -68q-8 66 -60 130t-138 89v-419l30 -7q169 -33 267 -137t98 -246t-106 -254
t-289 -133v-213zM903 349q0 73 -50 126t-144 74v-395q96 18 145 70t49 125zM360 973q0 -150 189 -187v390q-85 -14 -137 -70t-52 -133z" />
    <glyph glyph-name="percent" unicode="%" horiz-adv-x="1673" 
d="M440 1180q-68 0 -112 -45t-44 -116t44 -116t112 -45t113 45t45 116t-45 116t-113 45zM440 1341q134 0 232 -95t98 -228.5t-97 -227.5t-233 -94t-232 96t-95 228q0 132 96.5 226.5t230.5 94.5zM1409 306q0 70 -45 116q-46 46 -114 45q-68 0 -112 -45t-44 -116t45 -113
q45 -47 113 -47t112 47q45 43 45 113zM1252 -16q-136 0 -232 95t-96 227t96 228t231 96t233 -96q98 -94 98 -228t-98 -228q-96 -94 -232 -94zM465 0h-189l955 1327h184z" />
    <glyph glyph-name="ampersand" unicode="&#x26;" horiz-adv-x="1427" 
d="M219 1120q0 164 113 264q118 98 274 98t264 -97t108 -263t-204 -315l-74 -55l271 -281l323 360v-264l-196 -227l329 -340h-272l-184 193q-193 -217 -398 -217t-317 110t-113 251q0 140 64 229t192 186l21 16l-27 29q-57 57 -78 88q-31 31 -61 102q-35 63 -35 133z
M554 160q84 0 144 38t138 121l6 9l-295 309l-74 -55q-123 -94 -123 -220q0 -76 60 -141q60 -61 144 -61zM601 1311q-75 0 -129 -48t-54 -133t110 -200l45 -49l99 73q109 80 108 181q0 70 -51 125q-53 51 -128 51z" />
    <glyph glyph-name="quotesingle" unicode="'" horiz-adv-x="411" 
d="M82 1227q0 55 35 90t89 35t89 -35t35 -90q0 -8 -4 -37l-86 -385h-70l-84 383q-4 29 -4 39z" />
    <glyph glyph-name="parenleft" unicode="(" horiz-adv-x="618" 
d="M113 649q0 582 389 977l116 -102q-340 -379 -340 -875t340 -874l-116 -103q-389 395 -389 977z" />
    <glyph glyph-name="parenright" unicode=")" horiz-adv-x="618" 
d="M506 649q0 -582 -389 -977l-117 103q340 379 340 875t-340 874l117 102q389 -395 389 -977z" />
    <glyph glyph-name="asterisk" unicode="*" horiz-adv-x="901" 
d="M530 1452v-274l252 86l47 -148l-254 -84l168 -215l-125 -94l-169 223l-160 -221l-125 94l162 213l-254 84l47 148l250 -88v276h161z" />
    <glyph glyph-name="plus" unicode="+" horiz-adv-x="1161" 
d="M113 670h383v399h168v-399h385v-162h-385v-404h-168v404h-383v162z" />
    <glyph glyph-name="comma" unicode="," horiz-adv-x="602" 
d="M143 128q0 60 44 100t111 40t114 -52t47 -142q0 -184 -93 -284t-210 -116v107q72 14 120 80q47 68 50 141q-16 -10 -60 -10t-84 37q-39 39 -39 99z" />
    <glyph glyph-name="hyphen" unicode="-" horiz-adv-x="739" 
d="M647 504h-555v168h555v-168z" />
    <glyph glyph-name="period" unicode="." horiz-adv-x="571" 
d="M143.5 130q0.5 58 40.5 101t100 43t102 -42t42 -102t-42 -100t-101 -40t-101 41q-41 41 -40.5 99z" />
    <glyph glyph-name="slash" unicode="/" horiz-adv-x="888" 
d="M889 1452l-703 -1452h-186l702 1452h187z" />
    <glyph glyph-name="zero" unicode="0" horiz-adv-x="1257" 
d="M301 664q0 -307 117 -431q82 -86 211 -86t211 86q116 123 116 431t-116 430q-82 86 -211 86t-211 -86q-117 -123 -117 -430zM102 664q0 307 119 481q141 213 407 213t408 -213q119 -174 119 -481t-119 -482q-141 -213 -407 -213t-408 213q-119 175 -119 482z" />
    <glyph glyph-name="one" unicode="1" horiz-adv-x="722" 
d="M569 0h-196v936h-322v141q137 4 229 73t113 177h176v-1327z" />
    <glyph glyph-name="two" unicode="2" horiz-adv-x="1083" 
d="M86 928q0 178 125 305q129 125 336 125t327 -119t119 -289q0 -252 -250 -409l-262 -168q-139 -88 -162 -187h682v-186h-929q2 166 75 295q74 127 240 233l221 144q182 117 183 276q0 96 -66 165q-67 69 -189 69t-187 -77t-64 -196q0 -6 4 -59l-201 24q-2 12 -2 54z" />
    <glyph glyph-name="three" unicode="3" horiz-adv-x="1132" 
d="M119 1143v184h901v-180l-379 -350q164 0 285 -107q125 -106 125.5 -290t-127.5 -308t-350 -124.5t-357 122.5q-133 123 -141 295l196 45q6 -127 88 -209q88 -78 211 -78t203 70q74 75 74 185t-79 174t-191 65q-62 -1 -117 -21l-99 166l392 361h-635z" />
    <glyph glyph-name="four" unicode="4" horiz-adv-x="1175" 
d="M72 299v231l569 797h277v-842h227v-186h-227v-299h-195v299h-651zM723 485v650l-467 -650h467z" />
    <glyph glyph-name="five" unicode="5" horiz-adv-x="1122" 
d="M559 143q125 0 207 73.5t82 201.5t-83 198t-219 70t-227 -96q-37 12 -78 30t-75 30t-43 18l172 659h700v-184h-567l-98 -381q88 98 278 98t318 -119q125 -121 124.5 -317t-134.5 -326t-345 -132q-211 0 -347 114t-152 280l192 58q10 -125 92 -199q78 -76 203 -76z" />
    <glyph glyph-name="six" unicode="6" horiz-adv-x="1187" 
d="M659 874q203 0 329 -120t126 -330t-143 -332.5t-352 -122.5t-362 155t-153 460q0 362 194 568t490 206q183 0 287 -74l-61 -164q-96 57 -238 58q-201 0 -330 -134q-125 -135 -137 -342q47 74 137 123t213 49zM338 423q0 -128 86 -202q84 -78 205 -78t198 76
q84 76 84.5 203.5t-81.5 203.5t-206 76t-202 -75q-84 -76 -84 -204z" />
    <glyph glyph-name="seven" unicode="7" horiz-adv-x="989" 
d="M979 1327v-192q-115 -89 -229 -240q-168 -209 -258 -518q-55 -178 -74 -377h-207q23 314 127 548t223 390q140 166 170 182l27 23h-748v184h969z" />
    <glyph glyph-name="eight" unicode="8" horiz-adv-x="1146" 
d="M572 764q104 0 176 58t72 152t-68 156t-179 62t-179 -62t-67 -156t71 -152t174 -58zM852 368q0 98 -74 162t-205 64t-204 -66q-73 -61 -73 -159t74 -162.5t203 -64.5t204 64t75 162zM573 -31q-225 0 -352 109q-129 104 -129 272q0 119 72 203q66 86 180 125
q-92 33 -154 118t-63 193q-1 161 127 265t320 104t319 -104t127 -265q0 -104 -62 -191t-155 -120q113 -35 180 -123q72 -86 72 -205q0 -168 -129 -272q-128 -109 -353 -109z" />
    <glyph glyph-name="nine" unicode="9" horiz-adv-x="1189" 
d="M424 150q225 0 342 129q113 135 119 342q-41 -72 -130 -121t-214 -49q-180 0 -322 118q-137 123 -137 326t143 334q147 129 354 129t358 -157t150 -453q-1 -373 -167 -576t-496 -203q-74 1 -166 23t-141 55l65 166q102 -63 242 -63zM285.5 901q0.5 -125 82.5 -202
t202 -77t204 76t84 203t-87 204t-201 77t-201 -76q-84 -80 -83.5 -205z" />
    <glyph glyph-name="colon" unicode=":" horiz-adv-x="593" 
d="M156 130q0 58 41 101t100 43t101 -42t42 -102t-42 -100t-101 -40t-100 41t-41 99zM154 851q0 58 41 101t99 43t103 -41q41 -45 41 -103t-43 -99t-101 -41t-99 41t-41 99z" />
    <glyph glyph-name="semicolon" unicode=";" horiz-adv-x="608" 
d="M272 -6q-40 0 -79 36t-39 93t40 95t104 38t110 -47t47 -137q0 -178 -90 -269q-82 -94 -199 -110v100q66 15 112 75t50 136q-16 -10 -56 -10zM156 851q0 58 41 101t100 43t101 -42t42 -102t-42 -100t-101 -40t-100 41t-41 99z" />
    <glyph glyph-name="less" unicode="&#x3c;" horiz-adv-x="987" 
d="M72 500v174l843 422v-195l-634 -313l634 -314v-194z" />
    <glyph glyph-name="equal" unicode="=" horiz-adv-x="1214" 
d="M1081 709h-948v157h948v-157zM1081 309h-948v162h948v-162z" />
    <glyph glyph-name="greater" unicode="&#x3e;" horiz-adv-x="987" 
d="M915 674v-174l-843 -420v194l639 314l-639 313v195z" />
    <glyph glyph-name="question" unicode="?" horiz-adv-x="1044" 
d="M399 487q0 205 170 320l90 61q109 74 109 201q0 100 -64 167t-184 67t-186 -78t-66 -185q0 -63 15 -100l-199 25q-12 43 -12 121t46 170t152 159.5t254 67.5q205 0 328 -123q121 -125 121 -289q0 -215 -209 -356l-94 -64q-90 -61 -90 -196q0 -25 2 -39h-181q-2 16 -2 71z
M356 124q0 56 39 95t94 39t95 -40t40 -93t-38 -96q-40 -39 -96 -39t-95 39t-39 95z" />
    <glyph glyph-name="at" unicode="@" horiz-adv-x="1691" 
d="M790 276q-142 0 -231 96q-88 96 -88 255q0 201 120 339t290 138q70 0 133 -35t86 -100l18 108h162l-111 -514q-6 -31 -6 -57q0 -84 78 -84q86 0 154 118t67 271q0 227 -158 375t-424 148t-442 -182q-178 -180 -178 -462t174 -461q180 -176 477 -176q240 0 420 144
l84 -111q-88 -82 -227 -132t-277 -50q-358 0 -589 215q-230 217 -230 565t232 573t555 225t530 -192q211 -190 211 -477q0 -225 -113 -379q-116 -153 -276 -153q-78 -1 -133 33t-70 98q-96 -136 -238 -136zM870 950q-93 0 -162 -90t-69 -211q0 -223 174 -223q106 0 170 94
q70 95 72 238q0 192 -185 192z" />
    <glyph glyph-name="A" unicode="A" horiz-adv-x="1427" 
d="M1190 0l-158 406h-643l-153 -406h-216l578 1452h231l578 -1452h-217zM709 1243l-248 -651h500z" />
    <glyph glyph-name="B" unicode="B" horiz-adv-x="1232" 
d="M184 1452h473q201 0 320 -109t119 -284q0 -111 -58 -194t-159 -120q123 -31 190 -127q72 -96 72 -223q0 -172 -125 -284q-127 -111 -324 -111h-508v1452zM385 817h250q115 0 188 64q70 68 70 170t-72 163t-194 62h-242v-459zM385 176h279q125 0 196 64q76 62 76 168
t-68 174q-70 63 -196 63h-287v-469z" />
    <glyph glyph-name="C" unicode="C" horiz-adv-x="1536" 
d="M813 -31q-297 0 -510 205q-211 207 -211 553q0 236 109 413t269 260t343 83q244 0 416 -123q168 -127 223 -338l-186 -66q-41 166 -158 252q-115 90 -295 90q-215 0 -364 -151q-152 -147 -152 -419t152 -424t364 -150q180 0 297 96q119 92 166 252l178 -66
q-59 -213 -229 -338q-166 -129 -412 -129z" />
    <glyph glyph-name="D" unicode="D" horiz-adv-x="1474" 
d="M385 178h297q213 0 354 141q140 143 140 407t-140 404q-135 143 -350 144h-301v-1096zM688 0h-504v1452h508q295 0 492 -195q198 -189 198 -531t-200 -534t-494 -192z" />
    <glyph glyph-name="E" unicode="E" horiz-adv-x="1189" 
d="M1067 0h-883v1452h883v-186h-682v-447h619v-188h-619v-445h682v-186z" />
    <glyph glyph-name="F" unicode="F" horiz-adv-x="1128" 
d="M385 0h-201v1452h883v-186h-682v-467h619v-189h-619v-610z" />
    <glyph glyph-name="G" unicode="G" horiz-adv-x="1566" 
d="M1442 0h-162l-18 205q-50 -94 -172 -165t-300 -71t-334 84t-263 262q-101 178 -101 414t109 413t269 259t341 82q231 0 406 -119q174 -123 237 -320l-182 -77q-49 156 -170 245q-123 86 -291 86q-213 0 -363 -150t-150 -424t148 -421q145 -152 357 -151q113 0 203 36
q154 62 215 220q29 61 30 122h-503v181h694v-711z" />
    <glyph glyph-name="H" unicode="H" horiz-adv-x="1511" 
d="M1327 0h-201v645h-741v-645h-201v1452h201v-621h741v621h201v-1452z" />
    <glyph glyph-name="I" unicode="I" horiz-adv-x="573" 
d="M389 0h-205v1452h205v-1452z" />
    <glyph glyph-name="J" unicode="J" horiz-adv-x="1093" 
d="M41 432v94l201 45v-137q0 -138 68 -208t180 -70t175.5 70t63.5 194v1032h201v-1018q0 -195 -119 -332q-123 -133 -325 -133t-324 125q-121 131 -121 338z" />
    <glyph glyph-name="K" unicode="K" horiz-adv-x="1368" 
d="M385 0h-201v1452h201v-747l680 747h264l-604 -647l612 -805h-254l-491 659l-207 -221v-438z" />
    <glyph glyph-name="L" unicode="L" horiz-adv-x="1122" 
d="M1071 0h-887v1452h201v-1264h686v-188z" />
    <glyph glyph-name="M" unicode="M" horiz-adv-x="1937" 
d="M1753 0h-199v1130l-495 -1130h-185l-491 1130v-1130h-199v1452h273l512 -1182l516 1182h268v-1452z" />
    <glyph glyph-name="N" unicode="N" horiz-adv-x="1562" 
d="M1378 0h-209l-784 1184v-1184h-201v1452h269l725 -1114v1114h200v-1452z" />
    <glyph glyph-name="O" unicode="O" horiz-adv-x="1642" 
d="M297 727q0 -272 155 -423q156 -150 370 -150t369 150t155 422t-154 421q-152 151 -371 151t-370 -151q-154 -148 -154 -420zM92 727q0 180 64 322q113 269 397 383q127 51 268 51t271 -52q279 -111 395 -382q63 -141 63 -322q0 -238 -108 -410q-104 -174 -270 -261
t-352 -87t-350.5 87t-268.5 261q-109 172 -109 410z" />
    <glyph glyph-name="P" unicode="P" horiz-adv-x="1222" 
d="M385 774h291q127 0 205 66q75 68 75 182t-75 182q-78 68 -205 68h-291v-498zM713 594h-328v-594h-201v1452h529q197 0 323 -123t126 -309t-126 -306t-323 -120z" />
    <glyph glyph-name="Q" unicode="Q" horiz-adv-x="1642" 
d="M92 727q0 180 64 322q113 269 397 383q127 51 268 51t271 -52q279 -111 395 -382q63 -141 63 -322q0 -326 -204 -537l170 -190l-138 -121l-176 195q-172 -104 -370 -104t-362 86t-269 261q-109 172 -109 410zM297 727q0 -272 155 -423t369 -150q141 0 254 63l-252 283
l140 121l254 -287q129 158 129 412t-154 401q-152 151 -371 151t-370 -151q-154 -148 -154 -420z" />
    <glyph glyph-name="R" unicode="R" horiz-adv-x="1267" 
d="M387 594v-594h-203v1452h547q203 0 322 -125q123 -123 123 -294t-94 -283t-259 -142l346 -608h-233l-332 594h-217zM387 774h307q121 0 199 66q76 68 76 182t-76 182t-199 68h-307v-498z" />
    <glyph glyph-name="S" unicode="S" horiz-adv-x="1214" 
d="M631 1307q-131 0 -210 -70t-79 -160q0 -176 186 -223l217 -47q184 -41 279 -148q98 -104 98 -270t-139 -293t-371 -127t-374 129q-139 129 -160 303l192 62q12 -131 102 -221t240 -90t228 65q78 66 78 158t-56 149q-57 63 -162 84l-206 45q-160 33 -257 137t-97 268
t138 295q140 130 350 130t330 -108t152 -253l-180 -63q-16 96 -92 172t-207 76z" />
    <glyph glyph-name="T" unicode="T" horiz-adv-x="1212" 
d="M1192 1266h-485v-1266h-201v1266h-486v186h1172v-186z" />
    <glyph glyph-name="U" unicode="U" horiz-adv-x="1372" 
d="M164 496v956h198v-950q0 -166 85 -256t239 -90t238 90t84 256v950h200v-956q0 -250 -146 -388t-376 -138t-376 138t-146 388z" />
    <glyph glyph-name="V" unicode="V" horiz-adv-x="1345" 
d="M672 258l442 1194h211l-559 -1452h-199l-547 1452h213z" />
    <glyph glyph-name="W" unicode="W" horiz-adv-x="2056" 
d="M1505 303l314 1149h206l-413 -1452h-207l-379 1178l-375 -1178h-200l-420 1452h207l319 -1137l365 1137h211z" />
    <glyph glyph-name="X" unicode="X" horiz-adv-x="1263" 
d="M1243 1452l-493 -725l487 -727h-240l-366 567l-375 -567h-236l496 727l-491 725h241l367 -569l373 569h237z" />
    <glyph glyph-name="Y" unicode="Y" horiz-adv-x="1265" 
d="M733 0h-201v621l-512 831h242l377 -647l377 647h229l-512 -831v-621z" />
    <glyph glyph-name="Z" unicode="Z" horiz-adv-x="1294" 
d="M1212 0h-1120v201l866 1065h-845v186h1089v-195l-870 -1069h880v-188z" />
    <glyph glyph-name="bracketleft" unicode="[" horiz-adv-x="589" 
d="M580 -303h-396v1911h396v-156h-228v-1602h228v-153z" />
    <glyph glyph-name="backslash" unicode="\" horiz-adv-x="888" 
d="M698 0l-698 1452h190l699 -1452h-191z" />
    <glyph glyph-name="bracketright" unicode="]" horiz-adv-x="589" 
d="M406 -303h-396v153h228v1602h-228v156h396v-1911z" />
    <glyph glyph-name="asciicircum" unicode="^" horiz-adv-x="1067" 
d="M1016 725h-203l-278 528l-281 -528h-203l398 729h169z" />
    <glyph glyph-name="underscore" unicode="_" horiz-adv-x="1110" 
d="M1079 -162h-1048v162h1048v-162z" />
    <glyph glyph-name="grave" unicode="`" horiz-adv-x="557" 
d="M328 1112l-258 299h241l176 -299h-159z" />
    <glyph glyph-name="a" unicode="a" 
d="M102 268q0 125 82 199q80 78 217 96l267 39q76 8 76 80t-53 121t-155 49t-161 -53q-57 -55 -68 -146l-184 43q16 143 129 230q111 90 274 90q210 0 310 -100t100 -261v-493q0 -88 12 -162h-188q-10 68 -10 133q-39 -63 -119 -113t-213 -50t-223 87q-93 86 -93 211z
M459 131q131 0 208 71t76 220v45l-301 -45q-63 -8 -103 -46t-40 -98t44 -104t116 -43z" />
    <glyph glyph-name="b" unicode="b" horiz-adv-x="1214" 
d="M354 0h-190v1483h190v-637q41 74 125 121t201 47q213 0 333 -144t120 -372t-123 -376.5t-340 -148.5t-316 170v-143zM936 498q0 160 -80 252q-76 94 -208 94t-214 -94t-82 -253t83 -255t212 -96t209 96t80 256z" />
    <glyph glyph-name="c" unicode="c" horiz-adv-x="1085" 
d="M574 838q-119 0 -207 -89t-88 -253t88 -256t213 -92t186 61q66 59 88 141l170 -74q-41 -125 -156 -215q-111 -92 -288 -92q-215 0 -357 150q-141 152 -141 378.5t141 372.5t338 146t309 -92t146 -222l-174 -73q-23 85 -86 147t-182 62z" />
    <glyph glyph-name="d" unicode="d" horiz-adv-x="1204" 
d="M569 842q-131 0 -211 -95t-80 -252t78 -253q74 -98 208 -98t211 101t77 255t-76 248t-207 94zM854 133v17q-39 -76 -117 -126t-188 -51q-211 0 -340 150q-127 150 -127 371t131 366q131 152 336 152q119 0 196 -49q78 -45 105 -117v637h190v-1301q0 -90 11 -182h-187
q-10 65 -10 133z" />
    <glyph glyph-name="e" unicode="e" horiz-adv-x="1110" 
d="M563 846q-121 0 -195 -75t-79 -177h538q-3 112 -73 182t-191 70zM84 486q0 232 138 381t346 149t334 -139t126 -377q0 -29 -4 -62h-741q4 -131 86 -215q88 -84 211 -84q213 0 276 199l166 -57q-43 -137 -159 -225t-283 -87q-208 1 -352 143t-144 374z" />
    <glyph glyph-name="f" unicode="f" horiz-adv-x="702" 
d="M659 811h-237v-811h-199v811h-182v174h182v166q0 160 93 249t231 89q88 0 115 -21v-172q-32 12 -90 12t-104 -38t-46 -129v-156h237v-174z" />
    <glyph glyph-name="g" unicode="g" horiz-adv-x="1183" 
d="M547 -252q301 0 301 320v141q-37 -70 -115 -116t-186 -46q-197 0 -326 133q-127 137 -127 342.5t126 343.5t340 138t290 -156v137h190v-911q0 -98 -24 -185q-30 -89 -84 -159t-154 -110t-231 -40q-181 0 -309 104t-146 263l187 43q9 -102 83 -172t185 -70zM571 209
q129 0 207 88t78 227t-78 230q-78 86 -204 86t-205 -86q-78 -88 -78 -234t78 -225q73 -86 202 -86z" />
    <glyph glyph-name="h" unicode="h" horiz-adv-x="1150" 
d="M356 0h-192v1483h192v-613q98 144 284 144t277 -109t91 -280v-625h-193v592q0 248 -229 248q-106 0 -167 -74t-63 -186v-580z" />
    <glyph glyph-name="i" unicode="i" horiz-adv-x="518" 
d="M354 0h-190v985h190v-985zM259 1221q-58 0 -98 40t-40 96t39 99q45 41 99 41t97 -39q41 -45 41 -102t-41 -94q-39 -41 -97 -41z" />
    <glyph glyph-name="j" unicode="j" horiz-adv-x="520" 
d="M164 -106v1091h192v-1100q0 -135 -73 -221q-74 -84 -199 -84q-74 0 -115 14v162q31 -6 62 -6q133 1 133 144zM259 1225q-58 0 -98 40t-40 96t39 99q45 41 99 41t97 -39q41 -45 41 -102t-41 -94q-39 -41 -97 -41z" />
    <glyph glyph-name="k" unicode="k" horiz-adv-x="1075" 
d="M354 0h-190v1483h190v-934l426 436h267l-420 -416l428 -569h-242l-321 434l-138 -137v-297z" />
    <glyph glyph-name="l" unicode="l" horiz-adv-x="520" 
d="M356 0h-192v1483h192v-1483z" />
    <glyph glyph-name="m" unicode="m" horiz-adv-x="1755" 
d="M354 0h-190v985h184v-131q49 82 131 121t172 39t170 -46t121 -141q100 186 330 187q139 0 239 -95t101 -280v-639h-191v618q0 104 -53 164q-50 62 -152 62t-167 -70q-63 -72 -64 -178v-596h-192v618q0 100 -52 164q-55 62 -157 62t-166 -70t-64 -180v-594z" />
    <glyph glyph-name="n" unicode="n" horiz-adv-x="1150" 
d="M356 569v-569h-192v985h188v-141q98 170 303 170q169 0 261 -109t92 -280v-625h-193v592q0 248 -229 248q-111 0 -168 -78q-62 -74 -62 -193z" />
    <glyph glyph-name="o" unicode="o" horiz-adv-x="1171" 
d="M893 492q0 168 -90 258q-86 94 -217 94t-217 -94q-90 -90 -90 -257t88 -259t219 -92t217 91q90 91 90 259zM82 492q0 226 142 375t362 149t362 -149t142 -375t-142 -374t-362 -148t-362 148t-142 374z" />
    <glyph glyph-name="p" unicode="p" horiz-adv-x="1214" 
d="M354 -389h-190v1374h186v-154q43 78 129 127t201 50q215 0 332 -146q121 -140 121 -368t-124 -374t-335 -147q-111 0 -195 46t-125 114v-522zM936 492q0 152 -79 248t-211 97t-213 -95t-81 -250t81 -250t212 -96t211 97t80 249z" />
    <glyph glyph-name="q" unicode="q" horiz-adv-x="1189" 
d="M1047 -389h-191v528q-39 -74 -119 -121q-82 -45 -188 -45q-205 0 -336 151t-131 371t127 365q123 150 336 150q119 0 201 -52t114 -124v151h187v-1374zM279 495q0 -151 77 -253q80 -98 210 -98t212 98q80 102 80 254t-80 249q-82 95 -213 95t-209 -95q-77 -99 -77 -250z
" />
    <glyph glyph-name="r" unicode="r" horiz-adv-x="751" 
d="M627 797q-270 0 -271 -303v-494h-192v985h188v-172q90 188 295 188q33 0 64 -6v-204q-43 6 -84 6z" />
    <glyph glyph-name="s" unicode="s" horiz-adv-x="925" 
d="M464 133q88 0 134 38q45 38 45 93q0 98 -127 127l-168 37q-118 26 -182 100t-64 189t103 207q104 92 248 92q98 0 168 -29q112 -38 176 -156q23 -41 30 -79l-170 -64q-7 58 -47 100q-18 27 -61 48q-43 16 -107 16t-106 -39q-47 -39 -47 -92q0 -94 112 -119l160 -35
q129 -27 201 -105t72 -192t-97 -207q-93 -93 -269 -93t-278 90t-118 196l174 61q8 -76 69 -133q61 -51 149 -51z" />
    <glyph glyph-name="t" unicode="t" horiz-adv-x="727" 
d="M422 299q0 -135 123 -135q59 0 90 8v-164q-49 -18 -131 -18q-127 0 -201 74t-74 206v541h-188v174h53q74 0 113 42t39 110v159h176v-311h213v-174h-213v-512z" />
    <glyph glyph-name="u" unicode="u" horiz-adv-x="1159" 
d="M522 -31q-168 0 -268 111t-100 285v620h192v-592q0 -111 54 -183t170 -72t174 70.5t59 182.5v594h192v-803q0 -86 11 -182h-185q-8 41 -8 119q-41 -74 -119 -112t-172 -38z" />
    <glyph glyph-name="v" unicode="v" horiz-adv-x="1028" 
d="M1008 985l-394 -985h-194l-400 985h218l280 -760l283 760h207z" />
    <glyph glyph-name="w" unicode="w" horiz-adv-x="1624" 
d="M719 985h199l256 -741l217 741h202l-319 -985h-199l-262 750l-256 -750h-203l-323 985h211l221 -741z" />
    <glyph glyph-name="x" unicode="x" horiz-adv-x="1005" 
d="M20 0l367 502l-354 483h233l242 -346l237 346h228l-350 -483q140 -184 247 -338t115 -164h-231l-254 362l-250 -362h-230z" />
    <glyph glyph-name="y" unicode="y" 
d="M410 -412h-211l245 521l-424 876h222l307 -680l295 680h207z" />
    <glyph glyph-name="z" unicode="z" horiz-adv-x="954" 
d="M872 0h-790v168l541 643h-533v174h772v-168l-540 -643h550v-174z" />
    <glyph glyph-name="braceleft" unicode="{" horiz-adv-x="722" 
d="M317 1227q0 381 369 381h27v-154h-27q-109 0 -156 -49q-45 -51 -45 -166v-336q0 -102 -57 -168t-156 -84q98 -19 156 -83t57 -169v-333q0 -117 45 -166t156 -50h27v-153h-27q-369 0 -369 381v278q1 106 -63 156t-162 51v176q98 1 162 51t63 156v281z" />
    <glyph glyph-name="bar" unicode="|" horiz-adv-x="536" 
d="M352 -303h-168v1911h168v-1911z" />
    <glyph glyph-name="braceright" unicode="}" horiz-adv-x="722" 
d="M631 563q-97 0 -161 -50t-64 -157v-278q0 -381 -369 -381h-27v153h27q111 0 156 52q45 47 45 164v333q0 104 57 169t156 83q-97 19 -155 83t-58 169v336q0 115 -45 166q-47 49 -156 49h-27v154h27q369 0 369 -381v-281q0 -106 64 -156t161 -51v-176z" />
    <glyph glyph-name="asciitilde" unicode="~" horiz-adv-x="1167" 
d="M788 606q121 0 191 113l117 -94q-113 -190 -308 -191q-96 0 -198 55l-94 52q-57 31 -111 30q-111 0 -197 -116l-116 94q121 195 311 194q98 0 195 -53l94 -51q57 -33 116 -33z" />
    <glyph glyph-name="uni00A0" unicode="&#xa0;" horiz-adv-x="512" 
 />
    <glyph glyph-name="exclamdown" unicode="&#xa1;" horiz-adv-x="567" 
d="M352 590l51 -1034h-241l53 1034h137zM150 882q0 56 38 95t96 39t93 -41q41 -35 41 -92t-39 -97t-95 -39t-96 39q-38 40 -38 96z" />
    <glyph glyph-name="cent" unicode="&#xa2;" horiz-adv-x="1110" 
d="M645 0h-156v193q-168 31 -280 163q-107 136 -107 318t107 313q111 131 280 162v180h156v-176q141 -14 236 -96q88 -86 118 -191l-165 -67q-16 59 -64 119q-53 53 -125 67v-629q152 31 199 183l164 -68q-33 -102 -128 -185t-235 -98v-188zM293 672q0 -119 54 -200
t142 -107v612q-88 -27 -141 -109q-55 -77 -55 -196z" />
    <glyph glyph-name="sterling" unicode="&#xa3;" horiz-adv-x="1214" 
d="M145 735h144q-61 137 -62 242q0 165 118 273t288 108q215 0 313 -109q98 -104 109 -256l-201 -35q-2 109 -59 168q-61 56 -153 56t-153 -54t-61 -144t68 -249h397v-176h-344q4 -49 4 -55q0 -109 -52 -195t-143 -131h416q98 0 148 62t49 155l192 -28q0 -162 -90 -265
q-92 -102 -250 -102h-690v195q102 43 164 120q61 80 61 166q0 47 -8 78h-205v176z" />
    <glyph glyph-name="currency" unicode="&#xa4;" horiz-adv-x="1191" 
d="M168 492q0 132 76 245l-154 158l123 121l154 -160q113 72 237 72t227 -64l148 152l123 -121l-144 -150q84 -119 84 -260t-81 -247l141 -146l-121 -121l-143 148q-109 -68 -237 -68t-241 76l-149 -156l-121 121l150 156q-72 112 -72 244zM338 488q0 -114 76 -193
q78 -76 190 -76.5t187 75.5t75 194t-74 194t-188 76t-190 -76q-76 -80 -76 -194z" />
    <glyph glyph-name="yen" unicode="&#xa5;" horiz-adv-x="1191" 
d="M1051 317h-344v-317h-199v317h-346v148h346v164h-346v145h239l-350 553h234l321 -534l305 534h230l-334 -553h244v-145h-344v-164h344v-148z" />
    <glyph glyph-name="brokenbar" unicode="&#xa6;" horiz-adv-x="536" 
d="M184 1608h168v-817h-168v817zM184 514h168v-817h-168v817z" />
    <glyph glyph-name="section" unicode="&#xa7;" horiz-adv-x="1173" 
d="M991 489q0 -82 -53 -157q-55 -72 -119 -99q86 -53 133 -133t47 -163q0 -168 -122 -273q-123 -104 -307 -104t-288 104t-106 277l182 36q0 -117 58 -187t163 -69t163 53t58 154t-120 166l-213 111q-129 66 -211 147q-74 80 -74 186t56 175q49 70 118 96q-86 51 -135 133
q-47 82 -47 166q0 166 123 270t303 104t291 -106q106 -109 106 -272l-184 -37q0 117 -57 186q-60 68 -160 68t-162 -52t-62 -153t122 -166l211 -110q143 -76 213 -152q73 -74 73 -199zM803 459q0 112 -131 180l-205 111q-37 -14 -68 -62t-30 -102q0 -113 131 -180l205 -111
q33 14 67 61q31 49 31 103z" />
    <glyph glyph-name="dieresis" unicode="&#xa8;" horiz-adv-x="776" 
d="M197 1153q-51 0 -85 34t-34 83t33 86q39 35 87 35t83 -35t35 -86t-35 -82q-33 -35 -84 -35zM461 1270q0 53 35 86q31 35 82.5 35t85.5 -35t34 -86t-34 -82q-33 -35 -86 -35t-82 35q-35 29 -35 82z" />
    <glyph glyph-name="copyright" unicode="&#xa9;" horiz-adv-x="1681" 
d="M1422.5 726q-0.5 257 -168.5 432t-416 175t-417 -175t-169 -432t169 -432t417 -175t415 176q170 174 169.5 431zM92 727q0 315 219 535q215 221 527 220.5t532 -222.5t219.5 -534t-221.5 -533q-217 -223 -529 -223t-528 223q-219 219 -219 534zM840 1012q-98 0 -172 -74
q-70 -76 -70 -207t72 -207t174 -75q174 0 223 165l139 -61q-32 -98 -126 -174t-252 -76t-275 123q-115 125 -115 308t114 303t277 120t253 -78t118 -178l-143 -59q-14 70 -70 121q-49 49 -147 49z" />
    <glyph glyph-name="ordfeminine" unicode="&#xaa;" horiz-adv-x="876" 
d="M580 1111q0 44 -34 78t-102 34t-108 -36t-45 -97l-141 32q10 96 88 162q82 66 216 66t206 -74t71 -184v-347q0 -82 8 -112h-145q-8 31 -8 90q-66 -111 -215 -111q-109 0 -170 62q-65 58 -65 146t58 144t152 68l180 25q54 10 54 54zM395 735q184 0 185 191v30l-195 -30
q-96 -16 -96 -97q0 -35 28 -67q31 -27 78 -27z" />
    <glyph glyph-name="guillemotleft" unicode="&#xab;" horiz-adv-x="964" 
d="M524 203h-190l-273 391l273 391h190l-268 -391zM924 203h-191l-272 391l272 391h191l-269 -391z" />
    <glyph glyph-name="logicalnot" unicode="&#xac;" horiz-adv-x="1173" 
d="M1040 305h-172v400h-776v167h948v-567z" />
    <glyph glyph-name="uni00AD" unicode="&#xad;" horiz-adv-x="739" 
d="M647 504h-555v168h555v-168z" />
    <glyph glyph-name="registered" unicode="&#xae;" horiz-adv-x="1681" 
d="M92 727q0 315 219 535q215 221 527 220.5t532 -222.5t219.5 -534t-221.5 -533q-217 -223 -529 -223t-528 223q-219 219 -219 534zM1422.5 726q-0.5 257 -168.5 432t-416 175t-417 -175t-169 -432t169 -432t417 -175t415 176q170 174 169.5 431zM743 764h107q70 0 106 32
t37 89q0 125 -143 125h-107v-246zM743 629v-307h-155v823h284q121 0 200 -75t79 -173t-51 -163t-129 -91l184 -321h-178l-172 307h-62z" />
    <glyph glyph-name="macron" unicode="&#xaf;" horiz-adv-x="702" 
d="M631 1182h-559v166h559v-166z" />
    <glyph glyph-name="degree" unicode="&#xb0;" horiz-adv-x="759" 
d="M221 1027q0 -71 45 -116t113 -45t113 45t45 116t-45 116t-113 45t-113 -45t-45 -116zM50.5 1026.5q-0.5 131.5 95.5 227.5t232 96t233 -96t97 -228t-97 -227q-97 -94 -232 -94t-232 94q-96 96 -96.5 227.5z" />
    <glyph glyph-name="plusminus" unicode="&#xb1;" horiz-adv-x="1161" 
d="M133 791h363v278h168v-278h364v-158h-364v-275h-168v275h-363v158zM133 266h895v-162h-895v162z" />
    <glyph glyph-name="uni00B2" unicode="&#xb2;" horiz-adv-x="796" 
d="M131 1227q1 99 73 169t196 70t197 -68t73 -167q0 -137 -144 -225l-147 -93q-55 -37 -64 -75h359v-133h-549v26q0 190 174 297l123 76q88 51 88 129q0 43 -30 73t-82 30t-84 -33t-32 -72t7 -68h-152q-6 31 -6 64z" />
    <glyph glyph-name="uni00B3" unicode="&#xb3;" horiz-adv-x="843" 
d="M150 1319v133h555v-129l-205 -164q92 -8 157 -65q63 -62 63 -162t-81 -172q-88 -72 -214 -72t-204 62t-98 149l137 55q10 -61 55 -94q43 -37 105 -37t102 32q39 32 39 85t-41 84q-71 45 -155 18l-60 115l195 162h-350z" />
    <glyph glyph-name="acute" unicode="&#xb4;" horiz-adv-x="561" 
d="M492 1411l-259 -299h-161l178 299h242z" />
    <glyph glyph-name="mu" unicode="&#xb5;" horiz-adv-x="1169" 
d="M534 -31q-92 0 -178 41v-399h-192v1374h192v-592q0 -111 54 -183t170 -72t174.5 70.5t58.5 182.5v594h193v-803q0 -111 10 -182h-185q-8 41 -8 119q-41 -74 -119 -112t-170 -38z" />
    <glyph glyph-name="paragraph" unicode="&#xb6;" horiz-adv-x="1282" 
d="M672 1286v-1698h-170v1069h-33q-162 0 -281 113q-117 115 -116 277q0 195 133 296q127 109 330 109h696v-166h-199v-1698h-170v1698h-190z" />
    <glyph glyph-name="periodcentered" unicode="&#xb7;" horiz-adv-x="571" 
d="M143.5 581q0.5 58 40.5 101t100 43t102 -42.5t42 -100.5t-42 -100t-101 -42t-101 41q-41 42 -40.5 100z" />
    <glyph glyph-name="cedilla" unicode="&#xb8;" horiz-adv-x="602" 
d="M530 -264q0 -76 -62 -129t-177 -53q-150 0 -225 94l75 92q63 -70 148 -70q43 0 67 19q29 14 29 46t-25 50t-59 18t-65 -10l-68 80l98 156h146l-80 -123q86 0 143 -45q55 -49 55 -125z" />
    <glyph glyph-name="uni00B9" unicode="&#xb9;" horiz-adv-x="600" 
d="M436 705h-157v501h-177v107q76 4 128 43t61 96h145v-747z" />
    <glyph glyph-name="ordmasculine" unicode="&#xba;" horiz-adv-x="991" 
d="M496 750q86 0 144 62t58 171t-57 168t-144 59t-147 -59q-59 -63 -59 -169t59 -171q60 -61 146 -61zM496 1350q154 0 258 -105q100 -106 100 -264t-100 -264q-104 -105 -258 -105t-258 105q-100 106 -101 264q0 158 101 264q104 105 258 105z" />
    <glyph glyph-name="guillemotright" unicode="&#xbb;" horiz-adv-x="964" 
d="M631 203h-191l269 391l-269 391h191l272 -391zM231 203h-190l268 391l-268 391h190l273 -391z" />
    <glyph glyph-name="onequarter" unicode="&#xbc;" horiz-adv-x="1597" 
d="M446 580h-157v501h-176v107q74 4 127 44t61 95h145v-747zM354 0h-188l954 1327h185zM827 147v150l363 451h174v-467h131v-134h-131v-147h-158v147h-379zM1206 281v284l-227 -284h227z" />
    <glyph glyph-name="onehalf" unicode="&#xbd;" horiz-adv-x="1595" 
d="M352 0h-188l954 1327h185zM446 580h-157v501h-176v107q74 4 127 44t61 95h145v-747zM1224 762q124 0 195 -70q74 -68 74 -166q0 -137 -143 -225l-148 -92q-55 -37 -63 -76h358v-133h-549v27q0 190 174 297l123 75q88 51 88 129q1 43 -29 73t-82 29.5t-84 -32.5t-32 -72
t6 -67h-151q-6 31 -7 63q0 100 73 170t197 70z" />
    <glyph glyph-name="threequarters" unicode="&#xbe;" horiz-adv-x="1740" 
d="M535 0h-189l954 1327h185zM139 1194v133h555v-129l-205 -164q97 -10 159 -66t62 -160t-82 -174t-212 -72q-129 0 -206 62t-97 150l137 55q10 -59 53 -96q47 -35 107 -35t102 31q39 33 39 88t-41 80q-37 29 -84 29t-72 -8l-59 114l194 162h-350zM971 147v150l362 451h174
v-467h131v-134h-131v-147h-157v147h-379zM1350 281v284l-228 -284h228z" />
    <glyph glyph-name="questiondown" unicode="&#xbf;" horiz-adv-x="1044" 
d="M614 520q0 -205 -170 -319l-90 -62q-109 -74 -108 -200q0 -100 63 -167t184 -67t187 78t65 184q0 63 -14 101l199 -25q12 -43 12 -121t-46 -171t-153 -160t-254 -66q-207 0 -325 123q-123 123 -123 289q0 215 209 356l94 63q90 61 90 197q0 29 -2 39h180q2 -16 2 -72z
M655 883q0 -55 -39 -97q-43 -38 -94 -38t-96 38q-39 44 -39 96t39 95q41 39 96 39t94 -39t39 -94z" />
    <glyph glyph-name="Agrave" unicode="&#xc0;" horiz-adv-x="1427" 
d="M1190 0l-158 406h-643l-153 -406h-216l578 1452h231l578 -1452h-217zM709 1243l-248 -651h500zM616 1554l-282 244h264l209 -244h-191z" />
    <glyph glyph-name="Aacute" unicode="&#xc1;" horiz-adv-x="1427" 
d="M1190 0l-158 406h-643l-153 -406h-216l578 1452h231l578 -1452h-217zM709 1243l-248 -651h500zM1087 1798l-280 -244h-193l207 244h266z" />
    <glyph glyph-name="Acircumflex" unicode="&#xc2;" horiz-adv-x="1427" 
d="M1190 0l-158 406h-643l-153 -406h-216l578 1452h231l578 -1452h-217zM709 1243l-248 -651h500zM539 1554h-187l230 244h245l240 -244h-188l-174 132z" />
    <glyph glyph-name="Atilde" unicode="&#xc3;" horiz-adv-x="1427" 
d="M1190 0l-158 406h-643l-153 -406h-216l578 1452h231l578 -1452h-217zM709 1243l-248 -651h500zM1036 1804v-32q0 -106 -53 -170q-57 -58 -138 -58t-151 47l-30 21q-47 29 -76 28q-72 0 -72 -90h-139v33q0 109 55 170q57 57 136 57t157 -47l31 -18q53 -29 78 -29
q66 0 65 72v16h137z" />
    <glyph glyph-name="Adieresis" unicode="&#xc4;" horiz-adv-x="1427" 
d="M291 1677q0 51 35 86t86.5 35t85.5 -35t34 -86t-34 -86t-86 -35t-86.5 35t-34.5 86zM887 1677q0 51 35 86t86.5 35t85.5 -35t34 -86t-34 -86t-86 -35t-86.5 35t-34.5 86zM1190 0l-158 406h-643l-153 -406h-216l578 1452h231l578 -1452h-217zM709 1243l-248 -651h500z" />
    <glyph glyph-name="Aring" unicode="&#xc5;" horiz-adv-x="1427" 
d="M709 1243l-248 -651h500zM706 1663q-44 0 -74 -33.5t-30 -75.5t30 -72t75 -30t75 30t30 74t-30 75q-32 32 -76 32zM961 1550q0 -110 -97 -186l543 -1364h-217l-158 406h-643l-153 -406h-216l541 1360q-102 78 -102 188t73 185q78 71 178 71t177 -71q74 -73 74 -183z" />
    <glyph glyph-name="AE" unicode="&#xc6;" horiz-adv-x="2101" 
d="M1978 0h-882v401h-570l-258 -401h-258l967 1452h1001v-186h-682v-447h619v-188h-619v-445h682v-186zM1096 582v704l-455 -704h455z" />
    <glyph glyph-name="Ccedilla" unicode="&#xc7;" horiz-adv-x="1536" 
d="M813 1483q244 0 416 -123q168 -127 223 -338l-186 -66q-41 166 -158 252q-115 90 -295 90q-215 0 -364 -151q-152 -147 -152 -419t152 -424t364 -150q174 0 296 97t167 251l178 -66q-55 -188 -201 -315q-147 -125 -354 -148l-43 -67q86 0 143 -45q55 -49 55 -125
t-62 -129t-177 -53q-150 0 -225 94l76 92q63 -70 147 -70q43 0 68 19q29 14 29 46t-25 50t-59 18t-66 -10l-68 80l62 98q-279 19 -470 223t-192 533q0 236 109 413t269 260t343 83z" />
    <glyph glyph-name="Egrave" unicode="&#xc8;" horiz-adv-x="1189" 
d="M1067 0h-883v1452h883v-186h-682v-447h619v-188h-619v-445h682v-186zM588 1554l-283 244h264l209 -244h-190z" />
    <glyph glyph-name="Eacute" unicode="&#xc9;" horiz-adv-x="1189" 
d="M1067 0h-883v1452h883v-186h-682v-447h619v-188h-619v-445h682v-186zM952 1798l-280 -244h-193l207 244h266z" />
    <glyph glyph-name="Ecircumflex" unicode="&#xca;" horiz-adv-x="1189" 
d="M1067 0h-883v1452h883v-186h-682v-447h619v-188h-619v-445h682v-186zM455 1554h-187l230 244h245l240 -244h-188l-174 132z" />
    <glyph glyph-name="Edieresis" unicode="&#xcb;" horiz-adv-x="1189" 
d="M272 1677q0 51 35 86t86 35t86 -35t35 -86t-35 -86t-86 -35t-86 35t-35 86zM745 1677q0 51 35 86t86 35t86 -35t35 -86t-35 -86t-86 -35t-86 35t-35 86zM1067 0h-883v1452h883v-186h-682v-447h619v-188h-619v-445h682v-186z" />
    <glyph glyph-name="Igrave" unicode="&#xcc;" horiz-adv-x="573" 
d="M389 0h-205v1452h205v-1452zM190 1554l-282 244h264l209 -244h-191z" />
    <glyph glyph-name="Iacute" unicode="&#xcd;" horiz-adv-x="573" 
d="M389 0h-205v1452h205v-1452zM666 1798l-281 -244h-192l206 244h267z" />
    <glyph glyph-name="Icircumflex" unicode="&#xce;" horiz-adv-x="573" 
d="M389 0h-205v1452h205v-1452zM129 1554h-186l229 244h246l239 -244h-188l-174 132z" />
    <glyph glyph-name="Idieresis" unicode="&#xcf;" horiz-adv-x="573" 
d="M23 1677q0 47 30 78q33 31 79 31t78 -32t32 -78t-33 -78t-77 -32t-79 31q-30 33 -30 80zM336 1676q0 46 32 78t78 32t78 -31t31.5 -78t-31.5 -80q-32 -31 -78 -31t-78 32t-32 78zM389 0h-205v1452h205v-1452z" />
    <glyph glyph-name="Eth" unicode="&#xd0;" horiz-adv-x="1482" 
d="M696 0h-503v666h-156v168h156v618h507q295 0 492 -195q199 -190 199 -532t-201 -532q-199 -193 -494 -193zM393 178h297q213 0 354 141q140 143 140 407t-140 404q-135 143 -350 144h-301v-440h250v-168h-250v-488z" />
    <glyph glyph-name="Ntilde" unicode="&#xd1;" horiz-adv-x="1562" 
d="M1378 0h-209l-784 1184v-1184h-201v1452h269l725 -1114v1114h200v-1452zM1112 1804v-32q0 -108 -54 -168t-136 -60t-152 47l-31 21q-47 29 -75 28q-72 0 -72 -90h-139v33q0 109 55 170q57 57 136 57t157 -47l30 -18q51 -29 78 -29q66 0 66 72v16h137z" />
    <glyph glyph-name="Ograve" unicode="&#xd2;" horiz-adv-x="1642" 
d="M297 727q0 -272 155 -423q156 -150 370 -150t369 150t155 422t-154 421q-152 151 -371 151t-370 -151q-154 -148 -154 -420zM92 727q0 180 64 322q113 269 397 383q127 51 268 51t271 -52q279 -111 395 -382q63 -141 63 -322q0 -238 -108 -410q-104 -174 -270 -261
t-352 -87t-350.5 87t-268.5 261q-109 172 -109 410zM739 1554l-282 244h264l209 -244h-191z" />
    <glyph glyph-name="Oacute" unicode="&#xd3;" horiz-adv-x="1642" 
d="M297 727q0 -272 155 -423q156 -150 370 -150t369 150t155 422t-154 421q-152 151 -371 151t-370 -151q-154 -148 -154 -420zM92 727q0 180 64 322q113 269 397 383q127 51 268 51t271 -52q279 -111 395 -382q63 -141 63 -322q0 -238 -108 -410q-104 -174 -270 -261
t-352 -87t-350.5 87t-268.5 261q-109 172 -109 410zM1182 1798l-281 -244h-192l206 244h267z" />
    <glyph glyph-name="Ocircumflex" unicode="&#xd4;" horiz-adv-x="1642" 
d="M297 727q0 -272 155 -423q156 -150 370 -150t369 150t155 422t-154 421q-152 151 -371 151t-370 -151q-154 -148 -154 -420zM92 727q0 180 64 322q113 269 397 383q127 51 268 51t271 -52q279 -111 395 -382q63 -141 63 -322q0 -238 -108 -410q-104 -174 -270 -261
t-352 -87t-350.5 87t-268.5 261q-109 172 -109 410zM651 1554h-186l229 244h246l240 -244h-189l-174 132z" />
    <glyph glyph-name="Otilde" unicode="&#xd5;" horiz-adv-x="1642" 
d="M297 727q0 -272 155 -423q156 -150 370 -150t369 150t155 422t-154 421q-152 151 -371 151t-370 -151q-154 -148 -154 -420zM92 727q0 180 64 322q113 269 397 383q127 51 268 51t271 -52q279 -111 395 -382q63 -141 63 -322q0 -238 -108 -410q-104 -174 -270 -261
t-352 -87t-350.5 87t-268.5 261q-109 172 -109 410zM1159 1806v-32q0 -112 -53 -170t-136 -58t-153 47l-31 21q-47 29 -75 28q-72 0 -72 -90h-139v33q0 113 55 168q53 59 134 59t159 -47l31 -18q51 -29 77 -29q66 0 66 72v16h137z" />
    <glyph glyph-name="Odieresis" unicode="&#xd6;" horiz-adv-x="1642" 
d="M383 1677q0 51 35 86t86 35t86 -35t35 -86t-35 -86t-86 -35t-86 35t-35 86zM1020 1677q0 51 35 86t86 35t86 -35t35 -86t-35 -86t-86 -35t-86 35t-35 86zM297 727q0 -272 155 -423q156 -150 370 -150t369 150t155 422t-154 421q-152 151 -371 151t-370 -151
q-154 -148 -154 -420zM92 727q0 180 64 322q113 269 397 383q127 51 268 51t271 -52q279 -111 395 -382q63 -141 63 -322q0 -238 -108 -410q-104 -174 -270 -261t-352 -87t-350.5 87t-268.5 261q-109 172 -109 410z" />
    <glyph glyph-name="multiply" unicode="&#xd7;" horiz-adv-x="1085" 
d="M889 113l-348 358l-344 -356l-115 114l346 361l-344 356l117 117l342 -356l342 356l116 -115l-346 -358l349 -361z" />
    <glyph glyph-name="Oslash" unicode="&#xd8;" horiz-adv-x="1642" 
d="M92 727q0 180 64 322q113 269 397 383q127 51 268 51q215 0 391 -113l148 189l139 -107l-149 -192q201 -213 200 -533q0 -238 -108 -410q-104 -174 -270 -261t-364 -87t-374 109l-139 -182l-143 104l145 188q-205 211 -205 539zM297 746q0 -252 121 -404l680 879
q-127 78 -277 77q-219 0 -370 -151q-154 -149 -154 -401zM1346 727q0 223 -117 377l-680 -879q121 -72 272 -71q215 0 370 150t155 423z" />
    <glyph glyph-name="Ugrave" unicode="&#xd9;" horiz-adv-x="1372" 
d="M164 496v956h198v-950q0 -166 85 -256t239 -90t238 90t84 256v950h200v-956q0 -250 -146 -388t-376 -138t-376 138t-146 388zM637 1554l-283 244h264l209 -244h-190z" />
    <glyph glyph-name="Uacute" unicode="&#xda;" horiz-adv-x="1372" 
d="M164 496v956h198v-950q0 -166 85 -256t239 -90t238 90t84 256v950h200v-956q0 -250 -146 -388t-376 -138t-376 138t-146 388zM1012 1798l-281 -244h-192l206 244h267z" />
    <glyph glyph-name="Ucircumflex" unicode="&#xdb;" horiz-adv-x="1372" 
d="M164 496v956h198v-950q0 -166 85 -256t239 -90t238 90t84 256v950h200v-956q0 -250 -146 -388t-376 -138t-376 138t-146 388zM516 1554h-186l229 244h246l239 -244h-188l-174 132z" />
    <glyph glyph-name="Udieresis" unicode="&#xdc;" horiz-adv-x="1372" 
d="M340 1677q0 51 35 86t86 35t86 -35t35 -86t-35 -86t-86 -35t-86 35t-35 86zM793 1677q0 51 34 86q35 35 86 35t86 -35t35 -86t-35 -86t-86 -35t-86 35q-34 35 -34 86zM164 496v956h198v-950q0 -166 85 -256t239 -90t238 90t84 256v950h200v-956q0 -250 -146 -388
t-376 -138t-376 138t-146 388z" />
    <glyph glyph-name="Yacute" unicode="&#xdd;" horiz-adv-x="1265" 
d="M733 0h-201v621l-512 831h242l377 -647l377 647h229l-512 -831v-621zM956 1798l-280 -244h-193l207 244h266z" />
    <glyph glyph-name="Thorn" unicode="&#xde;" horiz-adv-x="1212" 
d="M385 500h295q127 0 203 65q73 67 73 181t-74 181t-202 66h-295v-493zM705 322h-320v-322h-201v1452h201v-281h317q199 1 329 -119t130 -306t-129 -304q-122 -120 -327 -120z" />
    <glyph glyph-name="germandbls" unicode="&#xdf;" horiz-adv-x="1161" 
d="M731 710q0 -47 23 -63q18 -18 71 -43l72 -35q93 -45 153 -123t60 -186t-88 -200t-252 -91.5t-247 91.5t-83 198l170 45q0 -66 41 -119q37 -55 115 -55t116 38t38 83q0 98 -107 149l-70 33q-73 34 -143 91t-71 183t128 207l66 43q117 74 117 174q0 76 -62 132
q-62 51 -168 51t-180 -83t-74 -231v-999h-192v1010q0 219 127 346q131 127 319 127t308 -99q117 -102 116 -247q0 -190 -180 -303l-59 -37q-64 -40 -64 -87z" />
    <glyph glyph-name="agrave" unicode="&#xe0;" 
d="M102 268q0 125 82 199q80 78 217 96l267 39q76 8 76 80t-53 121t-155 49t-161 -53q-57 -55 -68 -146l-184 43q16 143 129 230q111 90 274 90q210 0 310 -100t100 -261v-493q0 -88 12 -162h-188q-10 68 -10 133q-39 -63 -119 -113t-213 -50t-223 87q-93 86 -93 211z
M459 131q131 0 208 71t76 220v45l-301 -45q-63 -8 -103 -46t-40 -98t44 -104t116 -43zM481 1112l-258 299h242l176 -299h-160z" />
    <glyph glyph-name="aacute" unicode="&#xe1;" 
d="M102 268q0 125 82 199q80 78 217 96l267 39q76 8 76 80t-53 121t-155 49t-161 -53q-57 -55 -68 -146l-184 43q16 143 129 230q111 90 274 90q210 0 310 -100t100 -261v-493q0 -88 12 -162h-188q-10 68 -10 133q-39 -63 -119 -113t-213 -50t-223 87q-93 86 -93 211z
M459 131q131 0 208 71t76 220v45l-301 -45q-63 -8 -103 -46t-40 -98t44 -104t116 -43zM870 1411l-258 -299h-161l178 299h241z" />
    <glyph glyph-name="acircumflex" unicode="&#xe2;" 
d="M102 268q0 125 82 199q80 78 217 96l267 39q76 8 76 80t-53 121t-155 49t-161 -53q-57 -55 -68 -146l-184 43q16 143 129 230q111 90 274 90q210 0 310 -100t100 -261v-493q0 -88 12 -162h-188q-10 68 -10 133q-39 -63 -119 -113t-213 -50t-223 87q-93 86 -93 211z
M459 131q131 0 208 71t76 220v45l-301 -45q-63 -8 -103 -46t-40 -98t44 -104t116 -43zM399 1116h-178l213 285h219l213 -285h-180l-143 166z" />
    <glyph glyph-name="atilde" unicode="&#xe3;" 
d="M102 268q0 125 82 199q80 78 217 96l267 39q76 8 76 80t-53 121t-155 49t-161 -53q-57 -55 -68 -146l-184 43q16 143 129 230q111 90 274 90q210 0 310 -100t100 -261v-493q0 -88 12 -162h-188q-10 68 -10 133q-39 -63 -119 -113t-213 -50t-223 87q-93 86 -93 211z
M459 131q131 0 208 71t76 220v45l-301 -45q-63 -8 -103 -46t-40 -98t44 -104t116 -43zM864 1386v-30q0 -106 -55 -164t-132 -58t-147 44l-28 18q-47 29 -76 29q-59 0 -59 -88h-148v30q0 106 55 166q58 57 136 57t147 -44l29 -19q47 -29 73 -29q59 0 60 88h145z" />
    <glyph glyph-name="adieresis" unicode="&#xe4;" 
d="M102 268q0 125 82 199q80 78 217 96l267 39q76 8 76 80t-53 121t-155 49t-161 -53q-57 -55 -68 -146l-184 43q16 143 129 230q111 90 274 90q210 0 310 -100t100 -261v-493q0 -88 12 -162h-188q-10 68 -10 133q-39 -63 -119 -113t-213 -50t-223 87q-93 86 -93 211z
M459 131q131 0 208 71t76 220v45l-301 -45q-63 -8 -103 -46t-40 -98t44 -104t116 -43zM344 1153q-51 0 -85 34t-34 83t33 86q39 35 87 35t83 -35t35 -86t-35 -82q-33 -35 -84 -35zM608 1270q0 53 35 86q31 35 82 35t86 -35t35 -86t-35 -82q-33 -35 -86 -35t-82 35
q-35 29 -35 82z" />
    <glyph glyph-name="aring" unicode="&#xe5;" 
d="M102 268q0 125 82 199q80 78 217 96l267 39q76 8 76 80t-53 121t-155 49t-161 -53q-57 -55 -68 -146l-184 43q16 143 129 230q111 90 274 90q210 0 310 -100t100 -261v-493q0 -88 12 -162h-188q-10 68 -10 133q-39 -63 -119 -113t-213 -50t-223 87q-93 86 -93 211z
M459 131q131 0 208 71t76 220v45l-301 -45q-63 -8 -103 -46t-40 -98t44 -104t116 -43zM307 1315.5q0 94.5 69 158.5q68 64 160 64t160 -64t68 -158t-69 -160t-159 -66t-161 65q-68 66 -68 160.5zM632.5 1312q0.5 40 -28.5 70t-69 30t-72 -28q-27 -34 -27 -72t27 -69
q33 -29 73 -29t68 29t28.5 69z" />
    <glyph glyph-name="ae" unicode="&#xe6;" horiz-adv-x="1789" 
d="M455 -31q-160 0 -258 86q-95 88 -95 213t82 199q80 78 217 96l285 39q78 12 78 80t-58 120t-162 52t-168 -55t-73 -137l-180 34q12 145 139 230q121 90 277 90q242 0 350 -164q141 164 354 164t339 -139t126 -377q0 -33 -4 -62h-741q4 -131 89 -215t208 -84
q211 0 274 199l168 -57q-43 -133 -163.5 -223t-262.5 -89q-283 2 -426 213q-117 -213 -395 -213zM469 131q115 0 207 70q88 74 88 219v47l-322 -45q-143 -20 -143 -152q0 -57 45 -98q51 -41 125 -41zM1242 846q-120 0 -194 -75t-79 -177h538q-1 108 -73 180t-192 72z" />
    <glyph glyph-name="ccedilla" unicode="&#xe7;" horiz-adv-x="1085" 
d="M82 502q0 216 142 365t338 149t308 -92t146 -222l-174 -73q-23 85 -86 147t-182 62t-207 -92t-88 -252t87 -253t210 -93t190 61q68 68 88 141l170 -74q-37 -110 -127 -194t-235 -107l-48 -71q90 0 144 -47q55 -43 55.5 -120t-59.5 -129t-194 -52t-212 90l76 92
q64 -70 154 -70t90 68q0 29 -25 47t-59 18t-66 -10l-67 80l65 102q-190 23 -311 170q-123 143 -123 359z" />
    <glyph glyph-name="egrave" unicode="&#xe8;" horiz-adv-x="1110" 
d="M563 846q-121 0 -195 -75t-79 -177h538q-3 112 -73 182t-191 70zM84 486q0 232 138 381t346 149t334 -139t126 -377q0 -29 -4 -62h-741q4 -131 86 -215q88 -84 211 -84q213 0 276 199l166 -57q-43 -137 -159 -225t-283 -87q-208 1 -352 143t-144 374zM512 1112l-258 299
h242l176 -299h-160z" />
    <glyph glyph-name="eacute" unicode="&#xe9;" horiz-adv-x="1110" 
d="M563 846q-121 0 -195 -75t-79 -177h538q-3 112 -73 182t-191 70zM84 486q0 232 138 381t346 149t334 -139t126 -377q0 -29 -4 -62h-741q4 -131 86 -215q88 -84 211 -84q213 0 276 199l166 -57q-43 -137 -159 -225t-283 -87q-208 1 -352 143t-144 374zM891 1411l-258 -299
h-162l178 299h242z" />
    <glyph glyph-name="ecircumflex" unicode="&#xea;" horiz-adv-x="1110" 
d="M563 846q-121 0 -195 -75t-79 -177h538q-3 112 -73 182t-191 70zM84 486q0 232 138 381t346 149t334 -139t126 -377q0 -29 -4 -62h-741q4 -131 86 -215q88 -84 211 -84q213 0 276 199l166 -57q-43 -137 -159 -225t-283 -87q-208 1 -352 143t-144 374zM428 1116h-178
l213 285h219l213 -285h-180l-144 166z" />
    <glyph glyph-name="edieresis" unicode="&#xeb;" horiz-adv-x="1110" 
d="M563 846q-121 0 -195 -75t-79 -177h538q-3 112 -73 182t-191 70zM84 486q0 232 138 381t346 149t334 -139t126 -377q0 -29 -4 -62h-741q4 -131 86 -215q88 -84 211 -84q213 0 276 199l166 -57q-43 -137 -159 -225t-283 -87q-208 1 -352 143t-144 374zM377 1153
q-51 0 -85 34t-34 83t33 86q39 35 87 35t83 -35t35 -86t-35 -82q-33 -35 -84 -35zM641 1270q0 53 35 86q31 35 82 35t86 -35t35 -86t-35 -82q-33 -35 -86 -35t-82 35q-35 29 -35 82z" />
    <glyph glyph-name="igrave" unicode="&#xec;" horiz-adv-x="518" 
d="M190 1112l-258 299h242l176 -299h-160zM354 0h-190v985h190v-985z" />
    <glyph glyph-name="iacute" unicode="&#xed;" horiz-adv-x="518" 
d="M594 1411l-258 -299h-162l178 299h242zM354 0h-190v985h190v-985z" />
    <glyph glyph-name="icircumflex" unicode="&#xee;" horiz-adv-x="518" 
d="M354 0h-190v985h190v-985zM117 1116h-178l213 285h219l213 -285h-181l-143 166z" />
    <glyph glyph-name="idieresis" unicode="&#xef;" horiz-adv-x="518" 
d="M6 1272q0 47 31 80q35 30 79 30t77 -32t33 -78t-32 -77.5t-78 -31.5t-79 31q-31 31 -31 78zM404 1382q46 0 79 -30q31 -33 31 -79t-32 -78t-79 -32t-77 31t-31 78q-1 46 31 78t78 32zM354 0h-190v985h190v-985z" />
    <glyph glyph-name="eth" unicode="&#xf0;" horiz-adv-x="1167" 
d="M591 -29q-224 0 -368 140q-141 141 -141 357t143 347q141 135 334 135t283 -102q-66 174 -207 293l-268 -133l-60 129l193 96q-90 51 -230 94l60 156q184 -43 356 -158l223 113l64 -129l-166 -82q281 -262 280 -692q0 -248 -137 -404q-135 -160 -359 -160zM585 143
q128 0 216 86t88 238t-88 233q-88 86 -216 86t-220 -86q-89 -88 -89 -235t89 -236q92 -86 220 -86z" />
    <glyph glyph-name="ntilde" unicode="&#xf1;" horiz-adv-x="1150" 
d="M356 569v-569h-192v985h188v-141q98 170 303 170q169 0 261 -109t92 -280v-625h-193v592q0 248 -229 248q-111 0 -168 -78q-62 -74 -62 -193zM926 1386v-30q0 -106 -56 -164t-132 -58t-146 44l-29 18q-47 29 -76 29q-59 0 -59 -88h-147v30q0 106 55 166q57 57 135 57
t147 -44l29 -19q47 -29 74 -29q59 0 59 88h146z" />
    <glyph glyph-name="ograve" unicode="&#xf2;" horiz-adv-x="1171" 
d="M893 492q0 168 -90 258q-86 94 -217 94t-217 -94q-90 -90 -90 -257t88 -259t219 -92t217 91q90 91 90 259zM82 492q0 226 142 375t362 149t362 -149t142 -375t-142 -374t-362 -148t-362 148t-142 374zM514 1112l-258 299h242l176 -299h-160z" />
    <glyph glyph-name="oacute" unicode="&#xf3;" horiz-adv-x="1171" 
d="M893 492q0 168 -90 258q-86 94 -217 94t-217 -94q-90 -90 -90 -257t88 -259t219 -92t217 91q90 91 90 259zM82 492q0 226 142 375t362 149t362 -149t142 -375t-142 -374t-362 -148t-362 148t-142 374zM891 1411l-258 -299h-162l178 299h242z" />
    <glyph glyph-name="ocircumflex" unicode="&#xf4;" horiz-adv-x="1171" 
d="M893 492q0 168 -90 258q-86 94 -217 94t-217 -94q-90 -90 -90 -257t88 -259t219 -92t217 91q90 91 90 259zM82 492q0 226 142 375t362 149t362 -149t142 -375t-142 -374t-362 -148t-362 148t-142 374zM442 1116h-178l213 285h219l213 -285h-180l-143 166z" />
    <glyph glyph-name="otilde" unicode="&#xf5;" horiz-adv-x="1171" 
d="M893 492q0 168 -90 258q-86 94 -217 94t-217 -94q-90 -90 -90 -257t88 -259t219 -92t217 91q90 91 90 259zM82 492q0 226 142 375t362 149t362 -149t142 -375t-142 -374t-362 -148t-362 148t-142 374zM911 1386v-30q0 -106 -55 -164t-132 -58t-146 44l-29 18
q-47 29 -76 29q-59 0 -59 -88h-148v30q0 109 56 166t134 57t148 -44l29 -19q47 -29 74 -29q59 0 59 88h145z" />
    <glyph glyph-name="odieresis" unicode="&#xf6;" horiz-adv-x="1171" 
d="M893 492q0 168 -90 258q-86 94 -217 94t-217 -94q-90 -90 -90 -257t88 -259t219 -92t217 91q90 91 90 259zM82 492q0 226 142 375t362 149t362 -149t142 -375t-142 -374t-362 -148t-362 148t-142 374zM393 1153q-51 0 -85 34t-34 83t33 86q39 35 87 35t83 -35t35 -86
t-35 -82q-33 -35 -84 -35zM657 1270q0 53 35 86q31 35 82 35t86 -35t35 -86t-35 -82q-33 -35 -86 -35t-82 35q-35 29 -35 82z" />
    <glyph glyph-name="divide" unicode="&#xf7;" horiz-adv-x="1161" 
d="M446 225q0 53 39 92t93 39t94 -39t39.5 -92t-39.5 -94q-42 -39 -94 -39t-92 40t-40 93zM446 950q0 55 39 94t93 39t94 -39t39.5 -93t-39.5 -93t-94 -39t-91 41q-41 35 -41 90zM113 504v170h936v-170h-936z" />
    <glyph glyph-name="oslash" unicode="&#xf8;" horiz-adv-x="1171" 
d="M586 1016q135 0 256 -66l102 133l123 -98l-104 -135q127 -150 127 -366t-142 -366t-362 -149q-139 0 -254 64l-101 -129l-122 98l100 131q-127 151 -127 369t142 366t362 148zM279 494q0 -117 51 -207l401 520q-68 37 -145 37q-131 0 -217 -94q-90 -90 -90 -256zM586 141
q131 0 217 92q90 92 90 261q0 117 -49 202l-402 -520q64 -35 144 -35z" />
    <glyph glyph-name="ugrave" unicode="&#xf9;" horiz-adv-x="1159" 
d="M522 -31q-168 0 -268 111t-100 285v620h192v-592q0 -111 54 -183t170 -72t174 70.5t59 182.5v594h192v-803q0 -86 11 -182h-185q-8 41 -8 119q-41 -74 -119 -112t-172 -38zM524 1112l-258 299h242l176 -299h-160z" />
    <glyph glyph-name="uacute" unicode="&#xfa;" horiz-adv-x="1159" 
d="M522 -31q-168 0 -268 111t-100 285v620h192v-592q0 -111 54 -183t170 -72t174 70.5t59 182.5v594h192v-803q0 -86 11 -182h-185q-8 41 -8 119q-41 -74 -119 -112t-172 -38zM866 1411l-258 -299h-162l179 299h241z" />
    <glyph glyph-name="ucircumflex" unicode="&#xfb;" horiz-adv-x="1159" 
d="M522 -31q-168 0 -268 111t-100 285v620h192v-592q0 -111 54 -183t170 -72t174 70.5t59 182.5v594h192v-803q0 -86 11 -182h-185q-8 41 -8 119q-41 -74 -119 -112t-172 -38zM430 1116h-178l213 285h219l213 -285h-180l-144 166z" />
    <glyph glyph-name="udieresis" unicode="&#xfc;" horiz-adv-x="1159" 
d="M522 -31q-168 0 -268 111t-100 285v620h192v-592q0 -111 54 -183t170 -72t174 70.5t59 182.5v594h192v-803q0 -86 11 -182h-185q-8 41 -8 119q-41 -74 -119 -112t-172 -38zM381 1153q-51 0 -85 34t-34 83t33 86q39 35 87 35t83 -35t35 -86t-35 -82q-33 -35 -84 -35z
M645 1270q0 53 35 86q31 35 82 35t86 -35t35 -86t-35 -82q-33 -35 -86 -35t-82 35q-35 29 -35 82z" />
    <glyph glyph-name="yacute" unicode="&#xfd;" 
d="M410 -412h-211l245 521l-424 876h222l307 -680l295 680h207zM838 1411l-258 -299h-162l178 299h242z" />
    <glyph glyph-name="thorn" unicode="&#xfe;" horiz-adv-x="1214" 
d="M354 -389h-190v1872h192v-641q41 70 127 121q90 45 197 45q215 0 332 -146q121 -140 121 -368t-124 -374t-335 -147q-111 0 -195 46t-125 114v-522zM936 492q0 152 -79 248t-211 97t-213 -95t-81 -250t81 -250t212 -96t211 97t80 249z" />
    <glyph glyph-name="ydieresis" unicode="&#xff;" 
d="M410 -412h-211l245 521l-424 876h222l307 -680l295 680h207zM344 1153q-51 0 -85 34t-34 83t33 86q39 35 87 35t83 -35t35 -86t-35 -82q-33 -35 -84 -35zM608 1270q0 53 35 86q31 35 82 35t86 -35t35 -86t-35 -82q-33 -35 -86 -35t-82 35q-35 29 -35 82z" />
  </font>
</defs>
</svg>
